<?xml version="1.0" standalone="no"?>
<!DOCTYPE svg PUBLIC "-//W3C//DTD SVG 20010904//EN"
 "http://www.w3.org/TR/2001/REC-SVG-20010904/DTD/svg10.dtd">
<svg version="1.0" xmlns="http://www.w3.org/2000/svg"
 width="364.000000pt" height="364.000000pt" viewBox="0 0 364.000000 364.000000"
 preserveAspectRatio="xMidYMid meet">
<metadata>
Created by potrace 1.11, written by Peter Selinger 2001-2013
</metadata>
<g transform="translate(0.000000,364.000000) scale(0.100000,-0.100000)"
fill="#000000" stroke="none">
<path d="M0 1820 l0 -1820 1820 0 1820 0 0 1820 0 1820 -1820 0 -1820 0 0
-1820z m992 495 l3 -646 270 321 270 320 149 0 c139 0 148 -1 135 -17 -8 -10
-137 -161 -287 -336 -151 -175 -272 -323 -269 -330 3 -7 140 -162 306 -345
165 -183 303 -337 306 -343 4 -5 -54 -9 -148 -9 l-154 0 -289 337 -289 337 -3
-337 -2 -337 -130 0 -130 0 0 1015 0 1015 130 0 130 0 2 -645z m1798 -4 c112
-30 172 -59 166 -79 -2 -9 -12 -52 -21 -94 -9 -43 -19 -78 -22 -78 -3 0 -44
13 -92 30 -47 16 -128 34 -180 40 -209 24 -334 -41 -318 -163 11 -80 53 -112
304 -226 301 -136 402 -250 391 -441 -11 -181 -141 -318 -358 -376 -81 -21
-274 -24 -380 -5 -92 16 -230 59 -230 71 0 8 24 128 35 176 l5 22 82 -28 c120
-40 209 -53 328 -48 119 5 193 30 235 80 49 59 45 146 -11 208 -43 48 -83 70
-251 143 -184 80 -219 101 -299 182 -89 90 -108 138 -102 259 5 99 30 156 96
222 54 54 139 97 232 118 91 21 290 15 390 -13z"/>
</g>
</svg>
